<?xml version="1.0" encoding="UTF-8"?><svg id="b" xmlns="http://www.w3.org/2000/svg" viewBox="0 0 28.346 28.346"><g id="c"><path d="m28.346,14.173C28.346,6.345,22.002,0,14.173,0S0,6.345,0,14.173c0,7.075,5.18,12.938,11.96,14.002v-9.902h-3.596v-4.101h3.596v-3.122c0-3.549,2.112-5.514,5.351-5.514,1.553,0,3.176.28,3.176.28v3.487h-1.786c-1.763,0-2.307,1.095-2.307,2.213v2.656h3.93l-.629,4.101h-3.301v9.902c6.772-1.064,11.952-6.927,11.952-14.002Z" fill="#1877f2"/><path d="m19.687,18.274l.629-4.101h-3.93v-2.656c0-1.118.551-2.213,2.307-2.213h1.786v-3.487s-1.623-.28-3.176-.28c-3.238,0-5.351,1.965-5.351,5.514v3.122h-3.596v4.101h3.596v9.902c.722.116,1.46.171,2.213.171s1.491-.062,2.213-.171v-9.902h3.308Z" fill="#fff"/></g></svg>